<svg width="109" height="174" viewBox="0 0 109 174" fill="none" xmlns="http://www.w3.org/2000/svg">
<path d="M54.1982 120.183C50.6574 120.183 47.8409 119.057 45.7486 116.804C43.8173 114.391 42.8516 111.173 42.8516 107.151C42.8516 100.233 44.1392 93.7975 46.7143 87.8447C49.2894 81.8918 53.7154 75.5367 59.9923 68.7795C64.4987 63.9528 67.6371 59.8502 69.4075 56.4716C71.1779 52.932 72.0631 49.3121 72.0631 45.6116C72.0631 41.1068 70.3732 37.5673 66.9934 34.9931C63.7745 32.4189 59.107 31.1318 52.9911 31.1318C47.1971 31.1318 41.8055 31.8558 36.8162 33.3037C31.9878 34.7517 27.2399 36.8433 22.5725 39.5784C17.2614 42.3134 12.7549 43.0374 9.05316 41.7503C5.35142 40.3023 2.69583 37.7281 1.08638 34.0277C-0.362126 30.3273 -0.362126 26.3856 1.08638 22.2025C2.69583 18.0194 6.07567 14.4799 11.2259 11.5839C17.8247 7.88349 25.0672 5.06796 32.9535 3.13731C41.0007 1.04577 48.5652 0 55.6467 0C66.2691 0 75.6039 1.76976 83.6512 5.30929C91.6984 8.68793 97.8948 13.5146 102.24 19.7892C106.747 25.9029 109 33.0624 109 41.2677C109 48.6685 107.31 55.5062 103.93 61.7809C100.711 68.0555 94.9173 74.6519 86.5482 81.57C78.9838 87.8447 73.8335 93.2344 71.0975 97.7392C68.3614 102.083 66.591 106.749 65.7863 111.736C65.3034 114.311 64.0963 116.402 62.165 118.011C60.3946 119.459 57.739 120.183 54.1982 120.183ZM53.7154 174C47.2776 174 42.1274 172.069 38.2647 168.208C34.5629 164.347 32.7121 159.359 32.7121 153.245C32.7121 147.293 34.5629 142.466 38.2647 138.766C42.1274 134.904 47.2776 132.974 53.7154 132.974C60.1532 132.974 65.1425 134.904 68.6833 138.766C72.385 142.466 74.2359 147.293 74.2359 153.245C74.2359 159.359 72.385 164.347 68.6833 168.208C65.1425 172.069 60.1532 174 53.7154 174Z" fill="white"/>
</svg>
